<svg width="24" height="25" viewBox="0 0 24 25" fill="none" xmlns="http://www.w3.org/2000/svg">
<path d="M3 21.295V19.295C3 18.2341 3.42143 17.2167 4.17157 16.4666C4.92172 15.7164 5.93913 15.295 7 15.295H11C12.0609 15.295 13.0783 15.7164 13.8284 16.4666C14.5786 17.2167 15 18.2341 15 19.295V21.295M16 3.42487C16.8604 3.64517 17.623 4.14557 18.1676 4.84718C18.7122 5.54879 19.0078 6.4117 19.0078 7.29987C19.0078 8.18804 18.7122 9.05095 18.1676 9.75255C17.623 10.4542 16.8604 10.9546 16 11.1749M21 21.2949V19.2949C20.9949 18.412 20.6979 17.5557 20.1553 16.8593C19.6126 16.1629 18.8548 15.6656 18 15.4449M5 7.29498C5 8.35585 5.42143 9.37326 6.17157 10.1234C6.92172 10.8736 7.93913 11.295 9 11.295C10.0609 11.295 11.0783 10.8736 11.8284 10.1234C12.5786 9.37326 13 8.35585 13 7.29498C13 6.23412 12.5786 5.2167 11.8284 4.46656C11.0783 3.71641 10.0609 3.29498 9 3.29498C7.93913 3.29498 6.92172 3.71641 6.17157 4.46656C5.42143 5.2167 5 6.23412 5 7.29498Z" stroke="#C47C5A" stroke-width="2" stroke-linecap="round" stroke-linejoin="round"/>
</svg>
