<svg width="24" height="25" viewBox="0 0 24 25" fill="none" xmlns="http://www.w3.org/2000/svg">
<path d="M12 19.295C9.34784 19.295 6.8043 18.2414 4.92893 16.3661C3.05357 14.4907 2 11.9471 2 9.29498C3.31322 9.29498 4.61358 9.55364 5.82683 10.0562C7.04009 10.5587 8.14248 11.2953 9.07107 12.2239C9.99965 13.1525 10.7362 14.2549 11.2388 15.4681C11.7413 16.6814 12 17.9818 12 19.295ZM12 19.295C14.6522 19.295 17.1957 18.2414 19.0711 16.3661C20.9464 14.4907 22 11.9471 22 9.29498C19.3478 9.29498 16.8043 10.3486 14.9289 12.2239C13.0536 14.0993 12 16.6428 12 19.295ZM14.99 11.795C15.0595 10.4035 14.8284 9.0133 14.3124 7.7191C13.7965 6.4249 13.0078 5.25704 12 4.29498C10.9922 5.25704 10.2035 6.4249 9.68756 7.7191C9.17161 9.0133 8.94051 10.4035 9.01 11.795" stroke="#C47C5A" stroke-width="2" stroke-linecap="round" stroke-linejoin="round"/>
</svg>
