<svg width="24" height="25" viewBox="0 0 24 25" fill="none" xmlns="http://www.w3.org/2000/svg">
<path d="M11.9998 3.29498C14.3357 5.36156 17.3843 6.43755 20.4998 6.29498C20.9534 7.838 21.0922 9.45645 20.908 11.0542C20.7237 12.6519 20.2202 14.1963 19.4272 15.5955C18.6343 16.9948 17.5682 18.2204 16.2923 19.1995C15.0164 20.1786 13.5566 20.8912 11.9998 21.295C10.443 20.8912 8.98331 20.1786 7.70738 19.1995C6.43144 18.2204 5.36534 16.9948 4.57243 15.5955C3.77952 14.1963 3.27597 12.6519 3.09171 11.0542C2.90745 9.45645 3.04624 7.838 3.49983 6.29498C6.61536 6.43755 9.664 5.36156 11.9998 3.29498Z" stroke="#C47C5A" stroke-width="2" stroke-linecap="round" stroke-linejoin="round"/>
</svg>
