<svg width="24" height="25" viewBox="0 0 24 25" fill="none" xmlns="http://www.w3.org/2000/svg">
<path d="M16 15.295C13.79 16.628 10.208 16.628 8 15.295M19 9.00501L13.667 4.85701C13.199 4.49292 12.623 4.29524 12.03 4.29524C11.4371 4.29524 10.861 4.49292 10.393 4.85701L5.05903 9.00501C4.73847 9.2543 4.47912 9.57354 4.30078 9.93836C4.12245 10.3032 4.02984 10.7039 4.03003 11.11V18.31C4.03003 18.8404 4.24074 19.3492 4.61582 19.7242C4.99089 20.0993 5.4996 20.31 6.03003 20.31H18.03C18.5605 20.31 19.0692 20.0993 19.4442 19.7242C19.8193 19.3492 20.03 18.8404 20.03 18.31V11.11C20.03 10.287 19.65 9.51001 19 9.00501Z" stroke="#C47C5A" stroke-width="2" stroke-linecap="round" stroke-linejoin="round"/>
</svg>
