<svg width="24" height="25" viewBox="0 0 24 25" fill="none" xmlns="http://www.w3.org/2000/svg">
<path d="M9.18309 6.41195C7.8891 6.15209 6.54552 6.32613 5.36045 6.90713C4.17539 7.48814 3.21495 8.44367 2.62791 9.62576C2.04086 10.8078 1.85996 12.1505 2.11321 13.4458C2.36647 14.7411 3.03975 15.9168 4.02879 16.7907C5.01783 17.6646 6.26743 18.1881 7.58405 18.2799C8.90068 18.3718 10.2109 18.027 11.3117 17.2989C12.4125 16.5708 13.2426 15.5 13.6733 14.2525C14.104 13.0049 14.1113 11.6501 13.6941 10.398M14.8131 18.178C16.1085 18.4391 17.4538 18.2654 18.6403 17.6837C19.8268 17.102 20.7881 16.1448 21.3749 14.9608C21.9618 13.7769 22.1413 12.4323 21.8857 11.1358C21.6301 9.83932 20.9537 8.66348 19.9614 7.79082C18.9691 6.91815 17.7165 6.39747 16.398 6.30961C15.0795 6.22174 13.7688 6.57161 12.6695 7.30489C11.5702 8.03818 10.7437 9.11386 10.3184 10.365C9.89301 11.6161 9.89256 12.9726 10.3171 14.224" stroke="#C47C5A" stroke-width="2" stroke-linecap="round" stroke-linejoin="round"/>
</svg>
