<svg width="25" height="24" viewBox="0 0 25 24" fill="none" xmlns="http://www.w3.org/2000/svg">
<path d="M12.3783 0.000515515V11.7438H9.42729V5.5029L7.03454 9.36137H5.34376L2.95102 5.4859V11.7433H7.62939e-07V0H2.79136L6.18889 5.50238L9.58642 0L12.3783 0.000515515Z" fill="white"/>
<path d="M17.6711 11.7438L13.4758 0.000489807H16.6663L19.1868 8.05321L21.7073 0.000489807H24.8978L20.7025 11.7438H17.6711Z" fill="white"/>
<path d="M12.3783 12.2567V24H9.42728V17.7591L7.03454 21.6175H5.34376L2.95102 17.7421V23.9995H0V12.2562H2.79136L6.18889 17.7586L9.58642 12.2562L12.3783 12.2567Z" fill="white"/>
<path d="M24.8343 12.2489H13.4953V15.0264H17.6653V24H20.6164V15.0264H24.8343V12.2489Z" fill="white"/>
</svg>
