<svg width="267" height="21" viewBox="0 0 267 21" fill="none" xmlns="http://www.w3.org/2000/svg">
<path d="M9.64683 10.1712V20.5859C7.30131 19.83 5.1991 18.4678 3.55472 16.6381C1.91035 14.8084 0.782689 12.5769 0.286826 10.1712H9.6479H9.64683ZM19.5974 14.2222C17.8826 17.2366 15.0983 19.503 11.7915 20.5763L11.7904 10.1712H21.1236C20.8313 11.593 20.3162 12.96 19.5974 14.2222ZM9.6479 0.0555223L9.64683 8.03578H0.0156614C-0.0572207 6.50678 0.123913 4.9607 0.566565 3.46373C0.634206 3.23444 0.777108 3.03439 0.972398 2.89559C1.16769 2.75679 1.40407 2.68728 1.64372 2.69817C4.41775 2.82465 7.14757 1.9716 9.35208 0.289356L9.6479 0.0555223ZM11.7904 8.03578V0.0779446L11.694 0C13.8561 1.78906 16.5887 2.74974 19.3991 2.70884L19.7657 2.69817C20.0053 2.68728 20.2417 2.75679 20.437 2.89559C20.6323 3.03439 20.7752 3.23444 20.8428 3.46373C21.2855 4.96177 21.4666 6.50678 21.3937 8.03578H11.7904Z" fill="#C47C5A"/>
<path d="M56.7766 0.332031V1.19531H54.1203V19.3906H55.9133C56.024 19.3906 56.1346 19.4017 56.2453 19.4238C56.5995 19.4902 56.7766 19.7669 56.7766 20.2539H48.0441V19.3906H50.7004V3.45312L43.2629 20.4863H42.5988L35.427 5.77734V19.3906H37.1867C37.6073 19.4349 37.9061 19.7227 38.0832 20.2539H31.4094V19.3906H34.0656V1.19531H31.4094V0.332031H36.6555L44.0598 15.8047L50.7004 0.332031H56.7766Z" fill="white"/>
<path d="M68.2741 0C70.6205 0 72.6902 0.664062 74.4831 1.99219C77.0508 3.89583 78.3347 6.67383 78.3347 10.3262C78.3347 13.403 77.3054 15.9154 75.2468 17.8633C73.2989 19.6784 70.9415 20.5859 68.1745 20.5859C65.7618 20.5859 63.6368 19.8776 61.7995 18.4609C59.2982 16.4909 58.0476 13.735 58.0476 10.1934C58.0476 7.13867 59.0879 4.64844 61.1687 2.72266C63.1166 0.907552 65.4851 0 68.2741 0ZM68.2741 19.6562C72.2142 19.6341 74.1954 16.4688 74.2175 10.1602C74.1954 4.05078 72.181 0.973958 68.1745 0.929688C64.168 0.951823 62.1537 4.08398 62.1316 10.3262C62.1537 16.502 64.2012 19.612 68.2741 19.6562Z" fill="white"/>
<path d="M89.6995 20.4199H89.2014C88.7587 20.4199 88.4156 20.3424 88.1721 20.1875C87.8622 19.9661 87.4527 19.1914 86.9436 17.8633L80.5022 1.19531H78.6428V0.332031H86.7444V1.19531H84.0881L89.9651 16.2695L95.3108 1.19531H92.6545V0.332031H98.2659V1.19531H96.6057L89.6995 20.4199Z" fill="white"/>
<path d="M107.174 20.2539H98.3084V19.3906H100.965V1.19531H98.3084V0.332031H107.174V1.19531H104.517V19.3906H106.31C106.421 19.3906 106.532 19.4017 106.642 19.4238C106.997 19.4902 107.174 19.7669 107.174 20.2539Z" fill="white"/>
<path d="M133.314 0.332031V1.19531H130.658V19.3906H132.45C132.561 19.3906 132.672 19.4017 132.783 19.4238C133.137 19.4902 133.314 19.7669 133.314 20.2539H124.581V19.3906H127.238V3.45312L119.8 20.4863H119.136L111.964 5.77734V19.3906H113.724C114.144 19.4349 114.443 19.7227 114.62 20.2539H107.947V19.3906H110.603V1.19531H107.947V0.332031H113.193L120.597 15.8047L127.238 0.332031H133.314Z" fill="white"/>
<path d="M150.057 6.47461H149.294L148.696 4.61523C148.674 4.54883 148.652 4.47135 148.63 4.38281C147.966 2.25781 146.759 1.19531 145.011 1.19531H140.296V9.49609H146.97V10.459H140.296V19.3906H145.011C145.276 19.3906 145.531 19.3685 145.774 19.3242C147.124 19.0586 148.098 17.9408 148.696 15.9707L149.294 14.1113H150.057L149.925 20.2539H134.087V19.3906H136.743V1.19531H134.087V0.332031H149.925L150.057 6.47461Z" fill="white"/>
<path d="M165.739 1.19531V0.332031H172.512V1.19531H169.856V20.0879L168.162 20.4199L155.246 4.64844V19.3906H157.172C157.593 19.4349 157.892 19.7227 158.069 20.2539H151.229V19.3906H153.885V1.19531H151.229V0.332031H156.243L168.494 15.2734V1.19531H165.739Z" fill="white"/>
<path d="M186.068 20.2539H176.174V19.3906H179.328V1.19531H178.033C176.24 1.21745 175.012 2.34635 174.348 4.58203L173.617 7.10547H172.654L172.787 0.332031H189.521L189.687 7.10547H188.724L187.994 4.58203C187.352 2.34635 186.112 1.21745 184.275 1.19531H182.881V19.3906H185.172C185.592 19.4349 185.891 19.7227 186.068 20.2539Z" fill="white"/>
<path d="M201.351 0C203.697 0 205.767 0.664062 207.56 1.99219C210.128 3.89583 211.411 6.67383 211.411 10.3262C211.411 13.403 210.382 15.9154 208.324 17.8633C206.376 19.6784 204.018 20.5859 201.251 20.5859C198.839 20.5859 196.714 19.8776 194.876 18.4609C192.375 16.4909 191.124 13.735 191.124 10.1934C191.124 7.13867 192.165 4.64844 194.245 2.72266C196.193 0.907552 198.562 0 201.351 0ZM201.351 19.6562C205.291 19.6341 207.272 16.4688 207.294 10.1602C207.272 4.05078 205.258 0.973958 201.251 0.929688C197.245 0.951823 195.23 4.08398 195.208 10.3262C195.23 16.502 197.278 19.612 201.351 19.6562Z" fill="white"/>
<path d="M232.511 15.3249L232.437 12.3027H232.895C232.985 12.6252 233.093 12.9425 233.219 13.2531C233.341 13.5651 233.516 13.8542 233.734 14.1084C233.961 14.3672 234.24 14.5753 234.553 14.7193C234.941 14.8886 235.361 14.9694 235.784 14.9558C236.142 14.9648 236.498 14.9096 236.837 14.7926C237.1 14.701 237.341 14.5556 237.545 14.3658C237.719 14.2008 237.855 13.9997 237.943 13.7767C238.024 13.5699 238.067 13.3497 238.068 13.1274C238.069 12.9235 238.045 12.7202 237.994 12.5226C237.941 12.3281 237.842 12.1488 237.707 11.999C237.534 11.8144 237.329 11.662 237.102 11.5487C236.775 11.3859 236.432 11.2578 236.078 11.1664L235.06 10.8714C234.863 10.8133 234.623 10.7321 234.337 10.6279C234.04 10.5188 233.762 10.3645 233.512 10.1706C233.236 9.95649 233.005 9.6895 232.833 9.38518C232.633 9.01176 232.537 8.59172 232.554 8.16856C232.538 7.67831 232.644 7.1919 232.863 6.75304C233.056 6.38628 233.328 6.06675 233.658 5.81746C233.981 5.57745 234.347 5.40228 234.736 5.30167C235.111 5.20088 235.498 5.14896 235.886 5.1472C236.172 5.14507 236.458 5.1696 236.74 5.22049C236.974 5.26639 237.206 5.32467 237.434 5.39505C237.619 5.44984 237.799 5.5214 237.972 5.60886C238.125 5.68828 238.26 5.75637 238.377 5.81485L238.552 5.37236H239.009L239.157 8.4269H238.703C238.623 8.16508 238.528 7.87185 238.415 7.55417C238.302 7.23837 238.138 6.94346 237.929 6.68145C237.705 6.40604 237.427 6.18016 237.111 6.01817C236.706 5.82741 236.26 5.73759 235.812 5.75636C235.282 5.731 234.763 5.91639 234.368 6.27214C234.183 6.45643 234.038 6.67779 233.944 6.92173C233.851 7.16568 233.809 7.42672 233.823 7.68772C233.811 7.89821 233.843 8.10894 233.918 8.30593C233.994 8.50292 234.11 8.68166 234.26 8.83013C234.64 9.14711 235.088 9.37171 235.569 9.48638L236.747 9.82415C237.055 9.91745 237.357 10.0261 237.654 10.1497C237.962 10.2766 238.25 10.448 238.509 10.6585C238.773 10.8746 238.992 11.1418 239.151 11.4439C239.327 11.8062 239.413 12.2061 239.4 12.609C239.404 13.0236 239.308 13.4331 239.121 13.8029C238.934 14.1656 238.673 14.4844 238.354 14.7385C238.008 15.0102 237.617 15.2172 237.197 15.3494C236.733 15.4996 236.247 15.5745 235.758 15.5711C235.449 15.5748 235.14 15.5455 234.837 15.4838C234.594 15.4326 234.355 15.3638 234.123 15.2778C233.932 15.2051 233.746 15.1176 233.569 15.016C233.408 14.9226 233.261 14.8467 233.132 14.7865L232.985 15.318L232.511 15.3249ZM240.54 15.3249L240.687 14.7934C240.816 14.8537 240.96 14.9296 241.124 15.023C241.301 15.1248 241.485 15.2124 241.676 15.2848C241.909 15.3708 242.148 15.4396 242.391 15.4908C242.694 15.5524 243.003 15.5817 243.313 15.5781C243.801 15.5816 244.286 15.5067 244.75 15.3564C245.17 15.2242 245.562 15.0172 245.908 14.7454C246.227 14.4916 246.488 14.1727 246.674 13.8099C246.863 13.4404 246.959 13.0308 246.955 12.616C246.968 12.2128 246.882 11.8126 246.703 11.4509C246.545 11.1486 246.327 10.8814 246.063 10.6654C245.804 10.4551 245.516 10.2836 245.208 10.1566C244.897 10.0284 244.597 9.92015 244.301 9.83113L243.121 9.49336C242.641 9.37826 242.195 9.15366 241.817 8.83711C241.667 8.68864 241.551 8.50995 241.475 8.31296C241.4 8.11597 241.368 7.90519 241.38 7.69469C241.367 7.43357 241.408 7.1725 241.502 6.92855C241.596 6.68461 241.741 6.46328 241.927 6.27912C242.322 5.92319 242.842 5.7378 243.373 5.76334C243.82 5.74451 244.264 5.83434 244.669 6.02514C244.985 6.18664 245.264 6.4126 245.487 6.68843C245.697 6.9501 245.862 7.24509 245.974 7.56115C246.087 7.87533 246.183 8.16624 246.262 8.43388H246.72L246.572 5.37933H246.115L245.94 5.82182C245.822 5.76335 245.686 5.69439 245.535 5.61584C245.361 5.52878 245.181 5.45723 244.995 5.40203C244.768 5.3319 244.537 5.27363 244.303 5.22747C244.021 5.17671 243.735 5.15218 243.448 5.15417C243.059 5.15612 242.673 5.20804 242.298 5.30865C241.909 5.40931 241.544 5.58448 241.222 5.82443C240.891 6.07326 240.618 6.39287 240.426 6.76002C240.207 7.19888 240.1 7.68534 240.116 8.17559C240.099 8.59869 240.196 9.01852 240.395 9.39215C240.567 9.69617 240.797 9.9631 241.073 10.1776C241.324 10.3707 241.602 10.5249 241.899 10.6349C242.184 10.7379 242.422 10.8199 242.621 10.8784L243.638 11.1734C243.992 11.2644 244.336 11.3926 244.663 11.5556C244.89 11.6679 245.095 11.8205 245.268 12.006C245.403 12.1555 245.502 12.3348 245.556 12.5296C245.606 12.7272 245.631 12.9304 245.63 13.1344C245.628 13.3567 245.585 13.5768 245.504 13.7837C245.416 14.0067 245.28 14.2077 245.106 14.3728C244.903 14.5626 244.662 14.708 244.399 14.7996C244.06 14.9166 243.703 14.9719 243.344 14.9628C242.921 14.9764 242.501 14.8956 242.113 14.7263C241.801 14.5823 241.522 14.3741 241.295 14.1153C241.076 13.8613 240.901 13.5722 240.777 13.2601C240.653 12.9491 240.545 12.6319 240.454 12.3097H239.998L240.071 15.3319L240.54 15.3249ZM255.308 15.2831L255.986 12.6876L255.545 12.554C255.382 12.8946 255.194 13.2226 254.983 13.535C254.721 13.9058 254.372 14.2069 253.967 14.4121C253.708 14.5644 253.418 14.6574 253.119 14.6843C252.828 14.7094 252.541 14.7216 252.257 14.721H251.137C250.994 14.7418 250.849 14.729 250.713 14.6835C250.576 14.638 250.453 14.5612 250.351 14.4592C250.215 14.2327 250.151 13.9705 250.166 13.7069V10.5223H251.258C251.522 10.5183 251.786 10.5452 252.043 10.6026C252.251 10.6472 252.444 10.7439 252.604 10.8836C252.76 11.03 252.874 11.2157 252.934 11.4213C253.016 11.6989 253.053 11.9874 253.045 12.2765H253.518V8.29602H253.061C253.059 8.75313 252.906 9.19668 252.625 9.55707C252.443 9.71582 252.231 9.83513 252.002 9.90741C251.772 9.97968 251.53 10.0033 251.29 9.97687H250.17V5.93704H252.073C252.496 5.92646 252.919 5.98119 253.325 6.09934C253.625 6.19057 253.907 6.33317 254.158 6.52085C254.369 6.68219 254.554 6.87641 254.703 7.09602C254.847 7.30722 254.981 7.521 255.109 7.73656L255.553 7.54544L254.8 5.36362H247.43V5.83493L248.033 5.87941C248.223 5.87719 248.409 5.93394 248.565 6.04176C248.687 6.21246 248.74 6.42353 248.711 6.6317V14.0176C248.739 14.2258 248.687 14.4368 248.565 14.6076C248.408 14.7148 248.223 14.7715 248.033 14.7699L247.43 14.8144V15.2857L255.308 15.2831ZM263.459 15.2831V14.8118L262.618 14.7673C262.422 14.7717 262.232 14.7004 262.088 14.5683C261.969 14.3822 261.917 14.1618 261.94 13.9425V5.93613H263.046C263.448 5.9237 263.848 5.99136 264.224 6.13514C264.519 6.2555 264.79 6.42521 265.028 6.63697C265.243 6.83113 265.427 7.05713 265.574 7.30718C265.716 7.55328 265.852 7.79329 265.98 8.0298L266.422 7.83782L265.757 5.16989L265.448 5.00758C265.045 5.25216 264.579 5.37513 264.107 5.36186H258.347C257.875 5.37528 257.409 5.2523 257.006 5.00758L256.696 5.16989L256.032 7.83782L256.474 8.0298C256.603 7.79329 256.736 7.55328 256.879 7.30718C257.026 7.05708 257.21 6.83108 257.425 6.63697C257.663 6.42491 257.935 6.25516 258.229 6.13514C258.605 5.99127 259.005 5.9236 259.407 5.93613H260.499V13.9574C260.522 14.1713 260.467 14.3862 260.343 14.5622C260.193 14.6883 260.002 14.7559 259.805 14.7524L259.069 14.8127V15.2839L263.459 15.2831ZM224.773 14.8118L224.228 14.7673C224.118 14.7647 224.01 14.7403 223.91 14.6953C223.81 14.6503 223.72 14.5858 223.646 14.5055C223.579 14.4107 223.54 14.2989 223.533 14.183C223.527 14.0671 223.553 13.9517 223.609 13.85L226.291 7.32118L228.782 13.555C228.862 13.7518 228.907 13.9614 228.914 14.1738C228.914 14.5468 228.742 14.7434 228.399 14.7638L227.706 14.8083V15.2795H231.994V14.8083L231.552 14.7638C231.31 14.7502 231.082 14.648 230.91 14.4767C230.68 14.2052 230.502 13.8929 230.387 13.5559L227.012 5.27376H226.408L222.871 13.9539C222.793 14.1865 222.65 14.3915 222.458 14.5439C222.269 14.6696 222.051 14.7455 221.824 14.7647L221.411 14.8091V15.2805H224.772L224.773 14.8118Z" fill="#C47C5A"/>
</svg>
